<svg width="1469" height="582" viewBox="0 0 1469 582" fill="none" xmlns="http://www.w3.org/2000/svg">
<path d="M1467.62 0.590027H20.47V555.59H1467.62V0.590027Z" fill="white"/>
<path d="M20.47 0.590027L0.850098 53.63V581.57L21.72 557.06L20.47 0.590027Z" fill="#F51E1E"/>
<path d="M0.850098 581.57C104.09 581.18 207.32 580.78 310.56 580.39C324.34 572.12 338.13 563.86 351.91 555.59L21.72 557.05L0.850098 581.57Z" fill="#FD79B4"/>
<path d="M1117.27 581.57C1220.51 581.18 1323.74 580.78 1426.98 580.39C1440.76 572.12 1454.55 563.86 1468.33 555.59L1138.14 557.05L1117.27 581.57Z" fill="#FD79B4"/>
<path d="M869.76 581.57C973 581.18 1076.23 580.78 1179.47 580.39C1193.25 572.12 1207.04 563.86 1220.82 555.59L890.63 557.05L869.76 581.57Z" fill="#FD79B4"/>
<path d="M568.52 581.57C671.76 581.18 774.99 580.78 878.23 580.39C892.01 572.12 905.8 563.86 919.58 555.59L589.39 557.05L568.52 581.57Z" fill="#FD79B4"/>
<path d="M351.9 581.57C455.14 581.18 558.37 580.78 661.61 580.39C675.39 572.12 689.18 563.86 702.96 555.59L372.77 557.05L351.9 581.57Z" fill="#FD79B4"/>
<path d="M219.11 581.57C322.35 581.18 425.58 580.78 528.82 580.39C542.6 572.12 556.39 563.86 570.17 555.59L239.98 557.05L219.11 581.57Z" fill="#FD79B4"/>
</svg>
