<svg width="379" height="582" viewBox="0 0 379 582" fill="none" xmlns="http://www.w3.org/2000/svg">
<mask id="mask0_1_84" style="mask-type:luminance" maskUnits="userSpaceOnUse" x="0" y="0" width="379" height="582">
<path d="M0.701172 0.666687H378.035V581.573H0.701172V0.666687Z" fill="white"/>
</mask>
<g mask="url(#mask0_1_84)">
<path d="M144.462 386.839C145.441 411.75 147.53 431.552 150.728 446.229C153.921 460.917 158.587 471.141 164.743 476.906C170.884 482.682 179.124 485.557 189.447 485.557C199.77 485.557 207.999 482.682 214.155 476.906C220.296 471.141 224.962 460.917 228.165 446.229C231.358 431.552 233.441 411.75 234.431 386.839C235.41 361.938 235.905 330.594 235.905 292.839C235.905 255.083 235.41 223.755 234.431 198.844C233.441 173.943 231.358 154.141 228.165 139.453C224.962 124.776 220.296 114.552 214.155 108.776C207.999 103.01 199.77 100.125 189.447 100.125C179.124 100.125 170.884 103.01 164.743 108.776C158.587 114.552 153.921 124.776 150.728 139.453C147.53 154.141 145.441 173.943 144.462 198.844C143.473 223.755 142.988 255.083 142.988 292.839C142.988 330.594 143.473 361.938 144.462 386.839ZM10.9831 158.724C17.3633 121.755 27.9414 91.6042 42.6914 68.2656C57.4414 44.9375 76.8581 27.8906 100.952 17.1354C125.035 6.39585 154.535 1.01044 189.447 1.01044C224.348 1.01044 253.848 6.39585 277.941 17.1354C302.025 27.8906 321.452 44.9375 336.202 68.2656C350.952 91.6042 361.52 121.755 367.915 158.724C374.296 195.693 377.504 240.406 377.504 292.839C377.504 345.286 374.296 389.984 367.915 426.953C361.52 463.927 350.952 494.089 336.202 517.417C321.452 540.755 302.025 557.406 277.941 567.365C253.848 577.318 224.348 582.307 189.447 582.307C154.535 582.307 125.035 577.318 100.952 567.365C76.8581 557.406 57.4414 540.755 42.6914 517.417C27.9414 494.089 17.3633 463.927 10.9831 426.953C4.58724 389.984 1.39453 345.286 1.39453 292.839C1.39453 240.406 4.58724 195.693 10.9831 158.724Z" fill="black"/>
</g>
</svg>
