<svg width="360" height="806" viewBox="0 0 360 806" fill="none" xmlns="http://www.w3.org/2000/svg">
<mask id="mask0_1_74" style="mask-type:luminance" maskUnits="userSpaceOnUse" x="0" y="0" width="360" height="806">
<path d="M0.701172 0.666656H359.368V805.573H0.701172V0.666656Z" fill="white"/>
</mask>
<g mask="url(#mask0_1_74)">
<path d="M164.034 351.203C181.237 351.203 194.383 343.266 203.487 327.391C212.581 311.516 217.133 286.573 217.133 252.557C217.133 186.797 199.435 153.917 164.034 153.917H138.221V351.203H164.034ZM206.805 1.98438C232.862 1.98438 255.477 8.41667 274.654 21.2604C293.831 34.125 309.685 51.6979 322.221 73.9844C334.758 96.2865 343.977 122.557 349.878 152.781C355.773 183.026 358.727 215.906 358.727 251.427C358.727 335.328 344.091 398.255 314.846 440.203C285.586 482.156 242.69 503.13 186.159 503.13H138.221V811.531H1.05469V1.98438H206.805Z" fill="black"/>
</g>
</svg>
